<svg width="916" height="525" viewBox="0 0 916 525" fill="none" xmlns="http://www.w3.org/2000/svg">
<g clip-path="url(#clip0_23_3708)">
<path d="M405 341.999C553.5 246 740 167.5 916 313.999V524H358C376.5 470 426.5 414.5 483 368C466.5 377 401.5 417 363 445C357.5 449 285.5 499 247 524H241C318 467 588 229 798 260C667.5 215.5 535 271.139 405 341.999Z" fill="#171717"/>
<path d="M0 31V0H916V305C766 177.5 689 168 548 168C532 169 386 172.072 306 163C209 152 84 118.5 0 31Z" fill="#171717"/>
<path d="M0 18V0H96C221 101 342 123.5 484 156C218 162.5 106 108 0 18Z" fill="white" fill-opacity="0.05"/>
<path d="M0 31C82 113 202.5 161.5 373 168C434 170.326 551.5 168 559 168C713 168 784 192.5 916 305V314C853 262 802 241 717 234C607.5 234 542.5 258.5 405 342C549.5 265.067 665 218.5 798 260C703.5 240.5 573 297 469 358C389.5 404.63 265 508 241 524H247C286 499 345.5 457 363 445C403.5 417.229 442.5 390.5 483 368C429 413.5 378.5 465 358 524H247H241H0V31Z" fill="white" fill-opacity="0.05"/>
<path d="M745 298C807 277 866.5 291 916 322V345C865.5 307 811.5 290.5 745 298Z" fill="white" fill-opacity="0.05"/>
<path d="M655 304C586.5 346.5 534 407 534 525L563 525C563 445.5 584 395 627 352C680 299 729 283.5 797 278C766 271 700 276.08 655 304Z" fill="white" fill-opacity="0.05"/>
</g>
<defs>
<clipPath id="clip0_23_3708">
<rect width="916" height="525" fill="white"/>
</clipPath>
</defs>
</svg>
